<mxfile host="Electron" modified="2024-02-15T07:16:03.874Z" agent="Mozilla/5.0 (Windows NT 10.0; Win64; x64) AppleWebKit/537.36 (KHTML, like Gecko) draw.io/21.2.8 Chrome/112.0.5615.165 Electron/24.2.0 Safari/537.36" etag="Oq6eJOLARCzs_CMmLUyV" version="21.2.8" type="device">
  <diagram name="Page-1" id="2XWkQP5S-hDbL94sL5Vg">
    <mxGraphModel dx="2058" dy="1180" grid="1" gridSize="10" guides="1" tooltips="1" connect="1" arrows="1" fold="1" page="1" pageScale="1" pageWidth="3300" pageHeight="4681" background="#999999" math="0" shadow="0">
      <root>
        <mxCell id="0" />
        <mxCell id="1" parent="0" />
        <mxCell id="APLwThIm-aDqV8bCMrbt-1" value="QML Positioners: Row, Column, Grid" style="rounded=0;whiteSpace=wrap;html=1;fontSize=25;fillColor=#dae8fc;strokeColor=#6c8ebf;" parent="1" vertex="1">
          <mxGeometry x="1490" y="290" width="500" height="60" as="geometry" />
        </mxCell>
        <mxCell id="-Pex01nvc16_AXPF4taz-1" value="" style="shape=image;verticalLabelPosition=bottom;labelBackgroundColor=default;verticalAlign=top;aspect=fixed;imageAspect=0;image=data:image/png,iVBORw0KGgoAAAANSUhEUgAAAU4AAAGQCAYAAADBZ4k2AAAAAXNSR0IArs4c6QAAAARnQU1BAACxjwv8YQUAAAAJcEhZcwAADsMAAA7DAcdvqGQAACE/SURBVHhe7d0JgCRlfffxf/dcuzM7e84eyrFz7Mkhh/BiFMXljEiC0TeJUSMqKi++ggQSVjGwIAoRMSIJJgoRNCEavOAlmsi1EYQEI+RlAwI7ey+7sPfu7DC7c3ae56mnuqt7umv6qenuqe75fqarq+qpu6bqN091V/ckjjv+TSkZQyo15ijlU4ZlT+DWAFAStu0sEXnKoiTGmL8/ODQ4xwxMh1Cr/bCq7BZO5N8ylF+Z8yGPii+w5Jy2YMyAHGN4vuAsGJiqPF7na7S1IXSA8ose/pUL8fSS8qxsWHiOCs68oVkwMItPIMKqxNih1S96siCP8N059r42YxQZoOngLD4wVVk1nLMhK1kNqx8/cdtrY58ImFiRf0MV+oPiLSZPKJqnPOWBssSxxx2fJxsjBmbNh1XErSjDxtfG/pzcRp+aJRB5pmVZm4oK3YIxwjhfiHpFo6fTATo6OEeFZp7AzBus5RJxSSGTVW7dJ0oZtrCadlr4ORIjVbOiBUXegtAJK7NfzFJygjE3QPONo2WCM08Yjrp8HzMwQ4aGT1hQxMnGobIrWvntQ7UbfRoXqfITllzomkQcaIY4BqgXnDmBGB6Ytku1csYqk5ClRBs0ASKuTYU3Il77rHpkn3IlEnmmZVmbSELXJPrAkjBLyDwZXm/2soMBGhyeOPbY4wIxaTI0SyZEbVu1ckYJKDwk4qBxiNO6VFoZtqI2dox/DsREfFYm8pqETlj67Svd4ryRzXPmych9Fz0Ynpp5jfMYFZxeb05o5tYyvYeV2z9eIXOKNmgcSr/A8qxnVPFam9qXfRJOpNA1iT6w5HJyK0fp1iUYiJnOYL/XrY0KTy84s0Mzt5aZ6Q2GqZbdF3ZOhgwKF1yxHJHnGVk5NjCaym874iJz+joKnTDyXCOJviqFB7pNlikwXTYkRwWkeRo9TAXnsYGcLFTLzKmNjur35S30RBs0hkovr9LKsKbVMcuyyZwSFRJ5gRVf00hC1zL6wIJKuTxTYkNR84PRtvynrPHS4yw/5ljvuM8JzWCY1jc0SEtLszQ2NEpjU6PU1dU5ny3BuU+4sqxKtJnGaK+gSnincBTRpyyoDLOMykZe8dTow8PD0t/fLwMDg9LX1ydDg4Oq3JuPH5LpZ1uuecEZEpqtra0yY+YM2bPvkBw6PCiHB4ZlcHDYjoDJYYLiPXOclkCpt6Fc+6Tc+7oSv8vMMkr6Kywo+jY11NfLlCbdNErb7Omyf/8BOdjTkw7JQuGZWL78mHRO6hXwe/T1e1tbm2rXy6u7D6pEJiwnr9wD0zt4xnPAFsVfTK7gYguNM0op17Wc213mfVr2+WveMor+1ZTE+LersaFeFsydJfXqgnrnzl22VG2H2RBva7zOhCQzi/NDU7dTMl3VNNVFumzevp/QREAFT4dizgU9zpjjFTMjlE5lI9Mz/mUODA7Jlu27ZEjFnb7S9t78yeRi+lkVJL2+YGh61Vd9ef7qroNmMCY7fVD6jc87kMoudzGFFluh1fFMRDBUm+rdR6/t2iczZ8wwORjMxeBBpoJTFdoeb6BIy7QW85omNU3klzmAKkIvzm/CFDNO7NVSKFd6W0qzPF3z3L2vR5pbmk2/n4vpEFXPSe9A04maGarfPddvBGEys8dDHI11fuhVT69+ubajlgLOjd5yv6lVh/sHTA76qelftvuHk/cap+3RI+lOfcuRfvcck5V/QMSU0+pN3oCbnErz+z7cPyRNTU3eoZauVNpDT/Unli5d5meqHZ6S9oXt8kL3TlNayPTWKdJQ771E6mJwaER6Dh62fahe9mCKs/Q5VK51rbb5+sr/u8vE10QcJ6VZ5jGLjpJNmzeprkT6nfV0e4kKTt3pX6rrdnv7QvlNd+bt+Hy+dusN0rWoy/bl539Yfttru9Oh/XrPHrnyT1dJMlnnFaCKTcRJkYd/luZbHTOsXOtZjvlWYp+Wdxn+ryOjEtsUVJrlLV90pGzatDkQmt6W6Vb6XXWvVfwCZ85olWOXLQ5tjlm6yDTnnPEWOfedXjO3bY5azoidC6rb6FOk4oKrkG91zCEdg/WMkRtXXSNbup+TbRuez9voYTeu+pwd202hX0EpouzJx34qbz3tVNs3mh72y0f/WXWV8vftX4kH8lG1vBqnKjAbZwcUU+P87rdvkyOP7JL7n+iWRFJd8+umTjcjcv4Ji2TB/BnS2/u6GbelpUV+9ORG093R2icfuuhTUlfXYPpzPf/sv8msWTNsn8h1N9wif3fP92xf8X65+gHZt++A/M57P2xLUB72YJoouedI3tXRR7rtLKlybHv59+eW7v8v55z/Pnl1xw5bkm32rFny+CMPytGLT7AlxcsfnN42jfdXoIPxr277slx2xUp56un/tKWe0cPGvx+9Gqd/qe6tvflKOdV2f5HS0pMnEnWy8UCvbDp4UDb39cjW/gPyyuB+GRwcMbVKvcP8nabVNRb3htN7/+BiOaLjJBOaX1h1tS11c/qKCwnNsiv/ST6mMVdBjVA1oVkZ+rsmdGj29BzM22zavMX7PooI8u0VvftL8SvQgaiDUQdksOYZFqjlEjk4h0e8y+25c5ok0TgkB4Z6ZNfhPbLjkFdTTeTswSmzDktzW5/tK46uaW7ctEUu/sgf2RLER4yCQ6+K32RRBblnbMFxXYxr4pqXvXdKu69yw7NwaJblr2Va4AZ4u4H6cr2IbfVHeXHHK7Jx/6uyf2ifHJKDMpDoNeUpu95exVZdrs/sleZp3jBXz7/wsmlv2/hf6ebBH3/XlGl333nbqHLd/uINK023Vmhafzx/mL7E9+mXDYLD9HJ8wXI9nk9P76+PHqfQvDFOY54X6ggdaxx9EBdxrFdWeU/4Sinnbg2GZ3hNc5z7Mn18qCf/9U3VrbvGcanuOaSCsmHqoDRMGZT6pgFpUI2h5u6HprZs7lGyaGan7SuODh390aen//NZE053f/f75hJeN/p1UB1Qp516spz65hPT5fkuzwtN6/voh9+fHqaXF6zhvvMdbzXl+uWDc88+w5Tp4X65bu5/8F+y5rd4UYcp//NVX86at375oDb4B9EEKmYVcscpNM04NmfbhjVFNZPX6PDSu9tvyq88f4giB6fPBKZqGpp0EwhOtb7BHbNoVpdpivHj+/7O1NB06Bx38jtNOGo6iHx3f+f7JqB0qGqFanNh0/p0qPr0SwMdHUfbPpGrrr7BtPVy9JtNen6nv+006Wg/Ol2T1OuZNT81f5+eX7BGWv0qc7iXTJnP0iM631RUU7wq278hxtqSqJEWvDwPXrbnV579Oe7g9ELTC8xG3W70gtN7h95f6ZQMDA7KoUPF3fjuvzmkmzA6yDQdrjqsdIgFL8PD+NNG9dAjv0ivY1htUpdffMmVNXKpXi0ndch66rM12PhisWnVsn9dRY3I0XJf08x9zTNb+fZn9OBU+6K//5Cc1tYlp8xaLCdPXyIntiyXN0091pR7o3g7TGfoyMhI+g0lV36tUl+6+z560fvluf9+wfZ5byTpwNU1waBipnX1yyefTl+2F0Ovgw7X3HWrLjV6Ukc6p0sXBBmV27/6W8/1LUeFLFgwz4xTiN569z2QPUWUPVjojaDw8CyPyMGpM3D50qPkkhVnyyVnnCufePu75ONv/125+G0XyrKlR0pzc4vMmzdXZs+ZrWqhDSY4k8noB5yuVepLYv/yuHvdRnP5rS+d/TJ9if+1279pp8goNG1UOqR1jdOfn26CwRwUHCf4kgBiqFYrfDm+8w//ZO7TzHfzu25+9cTDapzyHatRUkDfP3nLTatGhabPD8+v3Hy9LSmvxJKlS+197ynvjSP11N7eLr9ZF34D/BWXXywnnVj4tZtkMmka/Zcr+ImkNc89L1/5y29IssAN8IizfMkSPA3ikjwF1qPQGTvWZo1Sru2s5P6rzLKyd+P4lqnDM5glYxvf8pZ32Rvg1UaYq2d987vZINWOGpzmBvcRFYq2v1h6uYlknVqBcb+8igmjf+vZp0TG+A7W0shZh0KrqoWtbt7pyr19ldx/lVmWtxsruV1B0ZcbFpyR00sHn6416o9OujR6GkKz2uVNlBB6fNdpxsMuq9Bi9bnkN1qhVRt1zkU/CYtXyf1UTpmd7P1MlPLsz6S3RZna5sRtIGpD7oEa7I9pKHDQ17jox52Nx8whYjuo+qEG2aNbt9JHvJXbH2ZCct5lBeNM77zcpnYQnCiDiTxZ8gSPH6CE5gSbyPAs7bIJThQQdhIHk8jlZHcZN4oSzZ/QrFGl+8USnCiBYk56ggFxoMNz/AFKcKKAYg+u0hyIsTIhGV9j+zBHrW1djQRnDZ68VaGG97kOz6wApcYcVfZRUhvHTA0EZyl+EXoe5fyFlnv+KJtRAQqXoznfeLWwSxOLlyw1N3GaH7M1Kelob5eHH37YjIDqcuezb7ZdiINPnPyM7UK1Ofucc2TTRv3JIe8TQ8FPD/EaJwA4IjgBwBHBCQCOCE4AcERwAoAjghMAHBGcAOBIBaf9Dk57R6q+l7Pab04FgFLwszCTi14HNU4AcERwAoAjghMAHBGcAOCI4AQARwQnADgiOAHAEcEJAI6S5suLzRcZe23/Bk8AmNS8ULS5qDu9bNR91DgBwBHBCQCOqjc49X+BmkwNgNigxgkAjghOAHBEcAKAI4ITABxlBae5W8nesgQAk569b9PndaeocQKAK4ITABwRnADgiOAEAEcEJwA4IjgBwBHBCQCOVHDa7+I0z8E7lgBgcktno/+dxaabGicAOCM4AcARwQkAjghOAHBEcAKAI4ITABwRnADgiOB0kpJe+Xd5XHbLkC1B6Qy9PiT7tvXLrlcH5fXD3l1zQBwl7V2d3v9cN/d2ej/ItVeekT+WU+VMuUy6ZcCWYpxGhmXbz7fJ7e9bI5e/c42s/N0X5PMX/LdcecYa+fPLtsmvN41wNGJCeDloQjFzDNpuapxjOiRb5a/kY7JE3iL3yksyrH5QEsP98h/XviQ3XbNDnt8yIs0d0+T4s2bK8SdMlRmNw7LzqR1y50e65cHn2OOIF4KzoM3yiHxa3iVHSpdcLnfLiMyXZjsMJTEyInu3Dcu0U+bL//nB8XLLfUvksls65bJvL5ebfrRY3n1SnaQOvi4P37pTNvTZaYAYIDgLelaF5TfkX2Wf1Kv4vFZ+KF+UueywEpt3QbusvOMIObm9Lmvf1s9rlfNXLpDFLSL93fvlv7pH7BBg4pEDBTXKUfIRuUGekS3yM/mCnKRqnCiphqlyyv+eLrPrbX+Ohjc2y5FzEiKDQ7J7J5friA+Cs6B3y1/It+U6FZhttgQVVpeUpkbVVtnZ2KSegJggOBFbqb5B2XsgpaqeDdI2v86WAhOP4ERMpWTHI7vk+V2qttk1Q447mhon4iNp7k8yN3F69ydlblgCJs7Aul3yT3celL5kgyz//TmycKodAFSQjsZ0JKa/zJgaJ2Kof8Me+furt8sLe5NyxB8slA//TiMHKmKF4xExkpK9j78it350szy9NSHtH+iQT18xXVo5ShEzHJKIh6FBefFvuuVLV+2ULcNT5LTPL5GrrpohcxrscCBGCE5MvN7X5ed/8pLcflevDHbMkQ/fs1Q+9p6p0mQHA3FDcGJiHTokj3x2g/zkqSGZeebRsvI7C+Vti+r0rZtAbBGcmEDD8tIdG+XH/z4ks357oVx1U5scwbvnqAIEJybMyNZ98vOfHZaReTPl9y6fJW28nokqYYLTuzdJP9v7lNI3LgHl0/N8j2w5INJ41DRZ2Jbw7pkr1NhpgIpJH3TeQZg5BlPUODFRUtL76qD0q67+57bJl1Y8J585I6Q5b52s3kJ8Ih4ITgd10iot6mcau60EUnK4LyV1DQmpS6ZkaHAktBke5P8SID4SXYsWpxTVqQ5MXR1VnZ0dHfLoo494Y8TVhLzt6n/7e536qbAiU+POZ99su6rASEo/ipdM6EdV+cTJz9guVJuzzjpbNmzcKAl1zCV04KiOhGmocTrSgTkBoVmrdBDWOTRVFpqoXQQnADgiOAHAEcEJAI4ITgBwpILTvq3p8u4mAExKKijVgxonADgiOAHAEcEJAI4ITgBwRHACgCOCEwAcEZwA4Cjp3b8Z+AJj+01JADC5qRzUeeg9PLabGicAOCI4AcARwQkAjghOAHBUvcGpX6GdTA2A2KDGCQCOCE4AcJQ0V4H2iStCAMiWzkX9X4BtJzVOAHBEcAKAI4ITABwRnADgiOAEAEcEJwA4IjgBwBHBCQCOTHBm3wTPjfAAoHPQy8JMl48aJwA4IjgBwBHBCQCOCE4AcERwAoAjghMAHBGcAOAo0dnZpf/luqTMP1737uLs7OiUxx571BsDACahM888SzZs3CAJ9SMJ9Wwa1al+qHECgCOCEwAcEZwA4IjgBABHBCcAOCI4AcARwQkAjmxwZr51Ludr5wBgUstEor7X3eunxgkAjuwnh9SPTlL76aHOzk5ZfyGfHIqTzZ+xHWPo61tvuxAHzc1dtgvVxv/kkPmsUOBTQ7qDGicAOCI4AcARwQkAjghOAHBEcAKAI4ITABx5wanv6LS8zkABAExS+g7NtEA3NU4AcERwAoAjghMAHBGcAOCI4AQARwQnADgiOAHAUTJ9a5K5YYn7NwHA4+ehatsbOv1napwA4IjgBABHBCcAOCI4AcARwQkAjghOAHBEcAKAIxWc+p8DW6Yj3QcAk1b6zk0biel+hRonADgiOAHAEcEJAI4ITgBwRHACgCOCEwAcEZwA4IjgBABHNjizb4JPdwPAZGbDMCsTVQ81TgBwRHACgCOCEwAcEZwA4IjgBABHBCcAOCI4AcBR0tyglO9eJQCAzUX1nMokZO3VOFODkjq0Q4b2rJOhA3slNWLLAaBEaiQ4R2TktQek53uny/bPtsjWaxbI9hsXy/ZVbfLKNcfI7of/VYYG7aioAinZ+c/XyW91niJHdf2h3PTrQ7YciIcaCc690v/op2X/r56W4YaF0rj4Qmk+7hxpmj9XpP9F6fvpu+W1b31VBgbs6Ii3vuflrlt+Imt27Je9ew7K4VTCDgDioWYu1RPz3iszP/GyHHljtyz41P3S9vGHZP7ntsobL1kpjU2qRtp9vez7xbO8jht7w7L5/m/IXc9Sy0R81UhwtsmUc74u04/plERW5aRR6pZdI7PeslwS0isDL/5ChnjNM9ZSe56U2259XPZ3nSJvOaLOlgLxUntvDo3SKnVv7FDBqQzsl9SwKUQs7ZfVN98k3+2eIWd/6DzpmGKLgZiZBME5JKm+HnOJnpjRJXX1XiniZ9/q2+XPvr1eWs76v/LFixZLC6+rIKaSmWNTdwW+l7NWDK6Vwy+/JKnEfGk64R1Sx/sMsZTa+6T8xcofyMtTTpErrn+vLJmanAx/1RFzo/JQFeiyGj421R+BA09K731/KPtf6pH641fJzBPb7TDEyvCrcv/Ka+Vbv2mU0z+7Si49caodAMRTDQXngAz+xydl1zfPk523nSDbr58nr9xwhuxb2yLNFzwg8y66VBoa7aiIkQFZe891cuX3t0rrisvlLz+5TIhNxF1N1ThTB9fI4ZceksOb1sjQ/t2qzjlFktPnSyJ1QEb6eVcojnp/fZd8+tp/k71vOE9u/voH5RjeEEIVqKHgbJSGdzwob/zCdjni2hdlwRWPytz3XSKNA09I70/fLzu+fJ4cWLfHjos4GN72kKz8+B3y5OEOuejr18sfdfLOHapDTdU4E01zpa71DVI3Z5k0tp8pU9/2VZm78jcy9+3Hixx4VHru+7wc6q25t7+qU+8a+drF18h31k2R0z/3FfnSu9pq+QV31JjaP1aTb5Cp598qLW31ktr5gLy+bocdgAmT2i0/++xV8qUn9sv0E8+Rs2e+LD+65z65J9Dc/b2nZKP+8FCqTzau/n+q7Afy/dWbhc8TIQ4S7R2dKf11SeZHt1WFrKurUzZc+JgdpQaktsrrd50ke17olcZzn5D555/q3RBfRTZ/xnaMoa9vve2KscG18tVz3yfX/colBpNy1If+Vp765pky25ZUg+bmLtuFarPizDNl/foNkkgkzCcS1bPp1j2TIzhHXpaDd5wq+9YPSeMFT8v8s48nOCfS0Hb52W13y+O7bX8eqYGd8tQP/0WePTBH3vr758vJbUlpWnqBXP3RE2SaHacaEJzVyzE4U9LV2SUb3lM7wZna9S3ZffulcqhvqbR+6mmZ1dVqh1SPmgrOYhx8Uq5468fkzq1dcuVDP5Ib/1d13qREcFYvLzjX2+A0semFpmrVwGucKRl+5krZ+8snZHgw940f9Ydg9wNy4O+vlkMHRyTZdalMa6++0JzszF95IEZq482hkXXS98N3yLZrO+S1b35Q9v7kT2XffR+QXV9fJttufo/0bOmRxIJPyuwPXCoNfOEOgHGqgeBUVeej/lha33SCJIe2ysCL/yi9v/iqHHzqe3Jo4zpJTTlOpp5znyz4k7+V5pncJ1g1UvXS3NoiU1qaZSr3KSFmaus1zoG9Mty7U4YPvCojMl3qZiyU+pltkqiBE2/SvcapjseRoWEZVn8Y6+rqJFmlV+u8xlm9avw1zoDG2VI3e5k0dqyQKR1vlobZtRGak1NCkvX10lBfvaGJ2kWsAIAjghMAHJngNDfx8BFuAMjwM1G3VROMSGqcAOCI4AQARwQnADgiOAHAEcEJAI4ITgBwRHACgCOCEwAcpYPT3Nxpb/QEACg2D3NjkRonADgiOAHAEcEJAI4ITgBwRHACgCOCEwAcEZwA4EgFZ+bmTW7hBIBs2bmo+tSDGicAOCI4AcARwQkAjghOAHBEcAKAI4ITABwRnADgKJm5SYm7OAEgI5iJuls1togaJwA4IjgBwBHBCQCOCE4AcERwAoAjghMAHBGcAOCI4AQARwWCk5vhAcCTnYe6L9He3pFKqc6UftYl6qmrq1NWr15tRgKAyWjFihWyfv0GlZLqkUh4jdfDpToAuCI4AcARwQkAjghOAHBEcAKAI4ITABwlzR1K5jYkryPdCQCTmJeFgTRUnX4fNU4AcERwAoAjghMAHBGcAOCI4AQARwQnADgiOAHAkQnO7Ps2s/sAYFLTkRi4h1OjxgkAjghOAHBEcAKAI4ITABwRnADgiOAEAEcEJwA4IjgBwJEJzoTpVMwdnuk+AECeSKTGCQCOCE4AcERwAoAjghMAHBGcAOCI4AQARwQnADgywZn91cXZfQCAbNQ4AcARwQkAjghOAHBEcAKAI4ITABwRnADgiOAEAEcEJwAUom9rH3Vre4rgBABXBCcAOCI4AcARwQkAjghOAHBEcAKAI4ITABwRnADgSAWnd3dn+h5PvscYALLkxiI1TgBwRHACgCOCEwAcEZwA4IjgBABHBCcAOCI4AcCRDU5u3gSAcDonVaMe1DgBwBHBCQCOCE4AcERwAoAjghMAHBGcAOCI4AQARwQnADgiOAHAEcEJAI4ITgBwRHACgCOCEwAcEZwA4IjgBABHBCcAOCI4AaCQhG0btke1CE4AcERwAoAjghMAHBGcAOCI4AQARwQnADgiOAHAUSA49T9bBwCk5YtFVUaNEwAcEZwA4IjgBABHBCcAOCI4AcARwQkAjghOAHAUCM7Md80BAHJlbuqkxgkAjghOAHBEcAKAI4ITABwRnADgiOAEAEcEJwA4IjgBwBHBCQCFFPhAEMEJAI4ITgBwRHACgCOCEwAcEZwA4IjgBABHBCcAOCI4AWAM3u2cmZs6CU4AcERwAoAjghMAHBGcAOCI4AQARwQnADgiOAHAkQrOAl84BwDI4eUlNU4AcERwAoAjghMAHBGcAOCI4AQARwQnADgiOAHAEcEJAI5scCa82zq5Fx4A8krHo+qgxgkAjghOAHBEcAKAozzBaV/vBAB4L27mhKIJTlNGWgJAmpeX+YIxEahxpryWHm1oeFh27drlFQDAJKPzb2ho2PaN5gWnF63+k/Qf7pe13d2mGwAmG51/h/sP2z5b61Qt2yVJv0Pzu/sH+qV77VrbBwCTi86/gf4B0+3lok1H20qm0zIwoPdgr9x77z/KK6+84pUBwCShc0/nX29vbzoWPV6PflaX6rplh9rW4OCgvPbaa/LXd9zhFQDAJKFzT+efzkFD5aKNRsXrqZs5a9b1ptcMyQzW1/d7du+R9evXy7Jly2T69Ol2CADUHl3TvOmmm+Wx1Y/Jnj17TFlCB6NqTMuEpu1u7+hMSUo99I9+Zz3YrcyYMV0WLFggH/rgB2Xx4sWyZMkSmTt3rjcQAKqYfvd87dq10t3dLf9w772mptlzoMcbmBWWXmCaEl3UoYLTD8qUl5yjArShoV5ap7VKY1OjTGmaInV1STXEjJpjVEFa4SFK6MAw0SYsz+IizzWSCu8ypbLbNz7mCK+ciIur8FoqIUus+DZEm9ILryhyJlS9ukTfctSvrq77BwbMa5qDg0NeMJoRbEimu71+U9LRqYJTnxPpoFQ9+mH7vUeg3HtKt4NMWSGhg6JNFyb6PAsPjLgq5dmGcqjw4mLHnBTxYE7WKEImC59jOZYXbZ7m8jgKl3VRvabMhqHX7bW9y3O/LDg8050nOPVcdVt1mEd296h2gDejCEImy11GlsiLq/A8w0ScLEzkdUEk5qSqpJDFha9J5AkLirztoasSbT1dpjPjmkewrZ6DZbrfL9fTmIG2u6OzS51n+lRTJ5t+jOpWgmX6xys0jyA7dn6hgyo7XZjQeYaJOFnYhGWYZdWI/HtQvEM7JiKuSvhkIUPLsOmR92foakbbhpJNZ3pVqWqbYel2sMzrNn2623Ta4Z0qOPVBasLQBmSw23tk2rm1zyBTFkXIZKHzjLy4Cs8zTMTJwiaMPMtKK9eKmiO8cqIvLuKUkScr/fIqPs9SrYsNwlGX5WaY1x96ye4FpzqGvWcvNE1bdZiHbat+b5Bu+8NyeBPnZad2FzJZ6DwjL6708wwTeb+EKcMsw1V8geOgDvxKKsPizMkbReTJSr+80HmWYbrcgaZPPZn5ZYVidpnp092mM1DW2aWC0xz36hTWbRuQWUFqy7y26jIPrx1kx8ovdFDIwDAVnmeYqlletRjP5pmDOx7sKVdaEWcZeV3KsbzQQVEXWHi6UUNUgVmOfpjp7FKD4ai7A2Wmz5ap4FykzkHvNLQJatumWPd4J6l55GkH5fQGjRo3KGRQmNB5hvC301nEycJE3YZyrEtUkbdhAthTIR4irkrkbSjDpnuh4y50G0JnWXigy2ReCOa27VrlBKVXlDPMBKdSTFh6eWP784SPGbeQ0EHRpgsTOs8wUdczqkpvX5gyzLKqeOdISdnTrbQizjLyulR8eYWnC51jyMBR66J6TZkpVl2Bfq9tp7BBaUrteiUSCfkfAJekm4LoDVQAAAAASUVORK5CYII=;" vertex="1" parent="1">
          <mxGeometry x="1563" y="380" width="334" height="400" as="geometry" />
        </mxCell>
      </root>
    </mxGraphModel>
  </diagram>
</mxfile>
